<svg width="215" height="50" viewBox="0 0 215 50" fill="none" xmlns="http://www.w3.org/2000/svg">
<g clip-path="url(#clip0_703_343)">
<path d="M80.3592 8.3606H85.1701L91.4645 26.3377H86.8549L85.7953 22.9892H79.3526L78.2452 26.3377H74.0066L80.3592 8.3606ZM84.6668 19.487L82.6004 12.9913H82.5262L80.4387 19.487H84.6668Z" fill="white"/>
<path d="M98.2357 8.38721H102.591L109.442 18.544H109.489V8.38721H113.643V26.3378H109.463L102.443 15.7889H102.39V26.3378H98.2357V8.38721Z" fill="white"/>
<path d="M121.299 20.1706V14.6816C121.299 10.2734 124.87 8.08521 128.849 8.08521C132.325 8.08521 136.124 9.84424 136.124 13.9981V14.8352H131.885V14.4326C131.885 12.5464 130.296 11.7834 128.913 11.7834C127.323 11.7834 125.792 12.6099 125.792 14.6498V20.0699C125.792 21.9032 127.127 22.9628 128.971 22.9628C130.354 22.9628 131.89 22.1575 131.89 20.3137V19.8898H136.129V20.7693C136.129 24.8967 132.42 26.661 128.955 26.661C124.997 26.6398 121.299 24.6477 121.299 20.1706Z" fill="white"/>
<path d="M143.727 8.38721H148.236V26.3378H143.727V8.38721Z" fill="white"/>
<path d="M156.342 8.38721H169.545V12.0377H160.846V15.4604H168.173V19.0739H160.846V22.6502H169.609V26.3272H156.363L156.342 8.38721Z" fill="white"/>
<path d="M177.44 8.38721H181.795L188.619 18.544H188.672V8.38721H192.858V26.3378H188.678L181.641 15.7889H181.594V26.3378H177.44V8.38721Z" fill="white"/>
<path d="M205.134 11.9847H200.048V8.38721H214.724V11.9847H209.638V26.3378H205.134V11.9847Z" fill="white"/>
<path d="M74.1761 45.3323V40.2671C74.1761 37.3848 76.3696 35.345 79.4162 35.345C82.2666 35.345 84.3436 36.9663 84.3436 39.3823V40.1505H83.1832V39.5995C83.1832 37.6815 81.7368 36.4947 79.3844 36.4947C77.1114 36.4947 75.4477 37.9994 75.4477 40.3095V45.1362C75.4477 47.4304 77.0902 48.8927 79.485 48.8927C81.8799 48.8927 83.2627 47.6688 83.2627 45.7508V43.7534H79.3049V42.6248H84.4495V45.9257C84.4495 48.4371 82.468 50.0001 79.485 50.0001C76.5021 50.0001 74.1761 48.4 74.1761 45.3323Z" fill="white"/>
<path d="M105.436 35.6045H106.623L111.794 49.7456H110.491L108.901 45.2951H103.025L101.404 49.7456H100.138L105.436 35.6045ZM108.557 44.246L106.014 37.088L103.402 44.246H108.557Z" fill="white"/>
<path d="M128.155 35.6416H129.697L134.386 44.246L138.974 35.6416H140.564V49.7457H139.345V37.798H139.303L134.857 45.9468H133.867L129.416 37.8192H129.358V49.7457H128.15L128.155 35.6416Z" fill="white"/>
<path d="M157.889 35.6416H159.134V49.7457H157.889V35.6416Z" fill="white"/>
<path d="M176.46 35.6257H177.747L185.398 47.5681H185.44V35.6257H186.622V49.7457H185.398L177.668 37.6179H177.625V49.7457H176.46V35.6257Z" fill="white"/>
<path d="M203.666 45.3323V40.2671C203.666 37.3848 205.86 35.345 208.906 35.345C211.757 35.345 213.829 36.9663 213.829 39.3823V40.1505H212.642V39.5995C212.642 37.6815 211.201 36.4947 208.848 36.4947C206.496 36.4947 204.911 37.9994 204.911 40.3095V45.1362C204.911 47.4304 206.554 48.8927 208.949 48.8927C211.344 48.8927 212.721 47.6688 212.721 45.7508V43.7534H208.753V42.6248H213.892V45.9257C213.892 48.4371 211.916 50.0001 208.933 50.0001C205.95 50.0001 203.666 48.4 203.666 45.3323Z" fill="white"/>
<path d="M41.1942 41.2896C41.1942 41.2896 45.4329 40.479 47.5522 43.1546C48.845 44.6381 47.5893 48.135 45.4329 48.9827C44.5024 49.4229 43.3923 49.5858 42.3864 49.804H57.0957C57.6697 49.804 57.9729 49.274 57.7514 48.7443C54.1839 40.2423 50.7082 32.0141 47.1548 23.4874C43.9758 15.932 40.8128 8.37663 37.6656 0.821263C37.5992 0.560501 37.4397 0.333035 37.2172 0.181755C36.9946 0.0304762 36.7245 -0.0341625 36.4576 2.738e-05C31.6008 0.0318171 26.7405 0.0318171 21.8767 2.738e-05C21.57 -0.0484564 21.2562 0.0183928 20.996 0.187669C20.7357 0.356946 20.5473 0.616645 20.4673 0.916632C17.6804 7.72317 14.8652 14.5332 12.0218 21.3469C10.8986 24.0384 9.70118 26.6981 8.57264 29.3897C5.81753 35.9348 3.26022 42.1744 0.529829 48.7443C0.305255 49.2716 0.612316 49.804 1.18541 49.804H10.0668C8.66801 46.0952 19.3865 42.1744 23.3496 41.74C21.0236 41.0883 22.9575 38.8471 23.1535 37.4378C24.2842 33.8804 25.1937 30.2565 25.8769 26.5869C26.2583 27.0743 26.4703 28.134 26.8835 28.5472C27.1326 26.3696 25.9881 23.3814 24.5152 21.8608C22.5495 20.3349 20.5044 22.8781 18.7666 23.5033C31.1646 3.44392 35.0111 24.2238 36.8072 36.5C36.892 37.3318 38.2378 40.1081 36.9397 40.2088L27.0478 41.6393C28.1339 41.9996 35.1913 41.6976 38.1742 41.5651" fill="white"/>
<path d="M12.7159 49.8039L36.0284 49.8039C34.7304 49.5814 33.4959 49.4489 32.2508 49.1204C25.7339 46.7203 19.1004 47.8806 12.7159 49.8039Z" fill="white"/>
</g>
<defs>
<clipPath id="clip0_703_343">
<rect width="214.724" height="50" fill="white"/>
</clipPath>
</defs>
</svg>
